# xmcd CD database file
#
# Track frame offsets:
#	150
#	15903
#	31253
#	42188
#	53058
#	66238
#	78852
#	89246
#	102558
#	114858
#	128029
#	142338
#	154996
#	166289
#	177665
#	188556
#	201159
#	212093
#	221414
#
# Disc length: 3114 seconds
#
# Revision: 3
# Processed by: cddbd v1.5.2PL0 Copyright (c) Steve Scherf et al.
# Submitted via: CDex 1.70beta2
#
DISCID=0e0c2813
DTITLE=Howlin' Wolf - Abracadabra Live
DYEAR=1997
DGENRE=Blues
TTITLE0=I Ain't Superstitious
TTITLE1=Goin' Down Slow
TTITLE2=Little Red Rooster
TTITLE3=Wang Dang Doodle
TTITLE4=Commit A Crime
TTITLE5=The Killing Floor
TTITLE6=Do The Do
TTITLE7=Poor Boy
TTITLE8=Highway 49
TTITLE9=Worried About You
TTITLE10=I Walked From Dallas
TTITLE11=My Mind Is Ramblin'
TTITLE12=My Country Sugar Mama
TTITLE13=Louise
TTITLE14=Hold On To Your Money
TTITLE15=Streamline Woman
TTITLE16=Somebody In My Home
TTITLE17=Built For Comfort
TTITLE18=Cause Of It All
EXTD=YEAR: 1997
EXTT0=
EXTT1=
EXTT2=
EXTT3=
EXTT4=
EXTT5=
EXTT6=
EXTT7=
EXTT8=
EXTT9=
EXTT10=
EXTT11=
EXTT12=
EXTT13=
EXTT14=
EXTT15=
EXTT16=
EXTT17=
EXTT18=
PLAYORDER=
